<svg xmlns="http://www.w3.org/2000/svg" viewBox="234.5 424 1549.5 1144" width="1549.5" height="1144"><g transform="scale(0.3333333333333333)"><g transform="translate(0.000000,6000.000000) scale(0.100000,-0.100000)"><path d="M44069 40060 c-20 -11 -335 -114 -704 -229 -159 -49 -324 -101 -365
-114 -41 -14 -120 -38 -175 -55 -176 -54 -585 -181 -730 -226 -77 -25 -225
-71 -330 -104 -104 -33 -201 -63 -215 -67 -35 -9 -231 -70 -535 -165 -324
-103 -339 -107 -565 -176 -203 -62 -220 -69 -220 -88 0 -11 71 -78 175 -165
22 -18 65 -55 95 -81 30 -26 76 -65 101 -86 52 -43 245 -208 378 -323 163
-141 241 -216 241 -232 0 -19 -797 -812 -1210 -1204 -63 -60 -165 -156 -225
-214 -218 -210 -662 -607 -1071 -958 -447 -384 -984 -815 -1430 -1148 -398
-296 -765 -562 -959 -692 -82 -56 -181 -123 -220 -150 -152 -106 -592 -396
-810 -533 -55 -35 -167 -106 -250 -158 -82 -52 -193 -121 -245 -152 -52 -32
-144 -88 -205 -125 -162 -101 -601 -354 -850 -490 -384 -211 -474 -259 -720
-385 -143 -73 -264 -136 -270 -140 -37 -29 -1054 -520 -1345 -650 -746 -334
-1460 -627 -1935 -795 -66 -24 -201 -73 -300 -109 -271 -99 -864 -297 -1370
-456 -33 -10 -114 -33 -180 -50 -66 -17 -156 -41 -200 -55 -44 -13 -123 -35
-175 -49 -52 -14 -122 -32 -155 -41 -293 -80 -862 -213 -1130 -265 -60 -11
-148 -30 -195 -40 -47 -11 -114 -25 -150 -30 -36 -6 -99 -17 -140 -24 -512
-92 -896 -148 -1260 -185 -491 -51 -491 -51 -1205 -91 -210 -12 -990 -12
-1275 0 -579 24 -1009 69 -1485 155 -77 14 -167 30 -200 36 -67 11 -500 117
-640 156 -49 14 -202 63 -340 108 -658 218 -1129 458 -1593 813 -281 216 -477
420 -696 724 -85 119 -226 383 -281 528 -38 99 -56 127 -74 116 -17 -11 -14
-47 19 -253 36 -219 77 -373 156 -580 104 -273 213 -478 403 -758 231 -342
627 -737 1026 -1025 226 -163 595 -384 820 -491 220 -104 280 -131 315 -144
19 -7 85 -34 145 -60 270 -114 963 -326 1330 -405 270 -59 586 -117 750 -140
33 -4 173 -24 310 -43 308 -44 496 -62 920 -89 278 -18 432 -22 975 -22 424
-1 707 3 825 12 99 7 257 17 350 22 188 11 567 45 688 61 42 5 132 16 200 24
163 19 631 82 737 99 47 8 148 24 225 36 77 12 187 30 245 40 58 10 125 22
150 25 25 4 72 13 105 21 33 7 166 34 295 59 129 25 273 54 320 65 47 11 157
36 245 55 169 38 278 63 385 91 36 9 90 22 120 29 143 33 498 127 715 190 88
26 184 53 213 61 68 18 254 73 407 120 66 20 158 48 205 61 111 33 414 130
465 150 22 8 87 30 145 48 157 51 335 113 600 212 74 28 164 60 200 72 172 58
985 381 1245 496 116 51 255 112 310 135 101 42 370 165 545 247 52 25 142 67
200 93 141 64 994 487 1095 542 44 25 143 77 220 117 186 97 357 191 485 266
58 34 161 93 230 130 69 38 188 107 265 153 77 47 199 119 270 160 173 100
1010 624 1155 723 63 44 185 125 270 182 136 91 277 187 589 404 47 32 121 85
166 118 44 33 130 96 191 140 110 81 280 208 519 390 158 119 407 316 564 445
64 52 152 124 196 159 44 36 114 94 155 131 41 37 102 88 135 114 33 27 105
88 160 136 55 48 139 121 186 161 469 402 1014 915 1667 1566 250 249 461 453
470 453 9 0 22 -4 27 -8 6 -4 85 -86 175 -182 264 -281 626 -650 638 -650 21
0 32 38 47 171 8 74 17 145 20 159 3 14 11 84 19 155 8 72 27 220 41 330 14
110 33 259 41 330 8 72 21 177 29 235 38 278 54 400 60 460 5 61 22 188 46
345 5 39 19 140 29 225 30 248 60 474 65 490 2 8 9 67 15 130 5 63 17 162 25
220 16 122 45 354 75 595 11 94 30 233 40 310 29 201 39 317 28 338 -9 18 -52
23 -79 7z M32950 25511 c-47 -10 -113 -30 -147 -44 -222 -91 -360 -297 -382
-571 -30 -374 121 -639 420 -741 74 -25 102 -29 236 -33 181 -5 260 9 379 67
137 66 263 204 310 339 75 219 53 517 -52 692 -18 31 -64 86 -103 123 -161
155 -415 220 -661 168z M9581 25433 c-55 -2 -101 -9 -110 -16 -20 -17 -47 -81
-131 -312 -39 -110 -97 -267 -127 -350 -31 -82 -71 -193 -89 -245 -34 -99 -86
-244 -149 -415 -21 -55 -59 -161 -86 -235 -26 -74 -76 -209 -109 -300 -34 -91
-115 -311 -180 -490 -65 -179 -130 -356 -145 -395 -15 -38 -72 -196 -127 -350
-55 -154 -119 -334 -143 -400 -23 -66 -50 -138 -60 -160 -17 -41 -102 -273
-268 -735 -166 -462 -282 -778 -442 -1205 -31 -82 -78 -211 -105 -285 -27 -74
-79 -216 -115 -315 -134 -362 -157 -435 -144 -451 10 -12 110 -14 673 -14 519
1 665 3 678 13 18 14 69 151 167 442 71 213 324 948 339 986 6 15 23 31 39 37
19 6 462 10 1242 11 1340 2 1252 7 1266 -61 4 -18 21 -73 37 -123 16 -49 38
-117 48 -150 10 -33 93 -280 185 -550 91 -269 173 -511 181 -537 8 -26 23 -52
34 -58 12 -6 252 -10 685 -10 590 0 666 2 672 15 6 18 -42 174 -128 410 -32
88 -85 239 -119 335 -34 96 -68 191 -75 210 -23 57 -85 226 -133 360 -209 587
-221 622 -280 775 -52 138 -81 220 -173 490 -32 94 -69 199 -82 235 -14 36
-48 130 -77 210 -28 80 -58 161 -65 180 -7 19 -39 107 -71 195 -95 265 -171
476 -199 550 -28 73 -94 257 -174 485 -27 74 -83 230 -126 345 -121 326 -125
337 -140 380 -26 76 -103 291 -175 485 -68 186 -133 368 -270 760 -33 96 -69
191 -78 210 l-17 35 -300 6 c-314 6 -873 7 -1034 2z m617 -1475 c5 -7 50 -132
100 -278 49 -146 119 -350 155 -455 36 -104 106 -314 156 -465 90 -276 113
-345 236 -695 126 -360 215 -629 215 -652 0 -15 -7 -24 -22 -28 -13 -3 -403
-4 -867 -3 -753 3 -845 5 -854 19 -7 11 -1 39 21 100 17 46 56 161 86 254 30
94 95 287 144 430 49 143 202 599 340 1013 138 414 254 757 257 762 8 14 21
12 33 -2z M20430 24915 c-107 -13 -316 -37 -465 -54 -406 -46 -476 -56 -485
-70 -16 -26 -21 -258 -19 -795 l3 -549 -21 -17 c-20 -16 -56 -17 -378 -19
-196 -1 -362 -4 -370 -8 -9 -3 -18 -17 -22 -32 -4 -14 -7 -231 -8 -482 0 -372
3 -459 14 -472 12 -15 51 -17 376 -17 331 0 365 -2 384 -17 l21 -18 4 -1190
c4 -1133 5 -1196 25 -1325 59 -396 159 -628 356 -825 196 -195 460 -305 843
-350 161 -19 291 -19 501 0 272 25 635 99 674 138 18 18 19 29 12 146 -3 69
-10 285 -14 479 -6 309 -9 355 -24 369 -15 16 -22 15 -104 -5 -185 -47 -292
-62 -449 -62 -132 0 -163 3 -237 25 -128 37 -185 74 -253 166 -47 64 -80 157
-93 264 -7 60 -11 433 -11 1128 0 1024 0 1037 20 1057 20 20 33 20 569 20
l550 0 15 22 c14 20 16 82 16 478 0 347 -3 461 -13 480 l-13 25 -558 5 c-537
5 -558 6 -572 24 -12 17 -14 135 -14 747 l0 728 -22 15 c-12 9 -27 15 -33 15
-5 -1 -98 -12 -205 -24z M16342 23510 c-447 -37 -836 -214 -1080 -493 -35 -40
-79 -98 -99 -130 -27 -45 -40 -57 -57 -55 -21 3 -21 6 -26 271 -5 268 -5 269
-29 288 -22 18 -47 19 -582 19 -546 0 -559 0 -579 -20 -20 -20 -20 -33 -20
-2309 0 -2068 2 -2291 16 -2305 14 -14 81 -16 589 -16 531 0 574 1 594 18 l21
17 3 1395 3 1395 26 95 c90 319 236 515 478 644 170 90 378 128 582 107 257
-27 433 -135 557 -339 50 -84 103 -222 128 -337 16 -73 18 -199 23 -1523 5
-1414 5 -1444 24 -1458 17 -12 114 -14 596 -14 551 0 578 1 594 19 16 17 17
125 13 1627 l-3 1609 -27 160 c-14 88 -32 180 -40 205 -8 25 -23 74 -33 110
-20 75 -73 209 -117 295 -76 152 -223 326 -371 439 -150 115 -414 220 -664
265 -127 23 -376 33 -520 21z M24430 23509 c-293 -24 -615 -108 -845 -222 -78
-39 -255 -149 -330 -206 -179 -136 -317 -282 -438 -463 -168 -253 -262 -457
-344 -743 -97 -344 -130 -678 -103 -1049 46 -616 254 -1122 630 -1528 194
-211 534 -425 835 -526 331 -111 652 -150 1035 -123 361 25 611 91 915 240
151 74 218 119 364 245 174 150 342 367 451 582 76 149 77 147 -79 209 -94 37
-208 86 -476 205 -357 157 -343 152 -376 127 -9 -7 -40 -47 -69 -91 -108 -160
-218 -275 -328 -339 -172 -101 -358 -147 -590 -147 -254 0 -493 77 -665 213
-115 92 -220 224 -291 365 -69 138 -144 444 -116 477 11 13 210 15 1545 15
1454 0 1534 1 1555 18 32 26 43 140 44 447 1 280 -13 427 -60 663 -28 137 -81
323 -121 422 -44 107 -141 289 -208 390 -57 86 -203 260 -252 300 -10 9 -48
41 -84 71 -74 63 -268 193 -344 232 -352 176 -795 253 -1255 216z m485 -1004
c49 -14 118 -40 152 -56 84 -40 205 -132 279 -211 121 -130 219 -341 246 -532
11 -73 10 -80 -7 -92 -16 -12 -183 -14 -973 -14 -638 0 -960 3 -973 10 -27 15
-24 60 11 176 71 233 187 410 354 544 141 111 293 174 501 204 17 2 95 3 175
1 122 -2 159 -7 235 -30z M29420 23509 c-395 -27 -781 -154 -1100 -363 -202
-133 -389 -306 -533 -494 -60 -78 -156 -231 -216 -344 -119 -221 -199 -484
-252 -818 -20 -127 -23 -182 -23 -445 0 -321 8 -414 60 -655 39 -182 70 -282
142 -450 45 -104 170 -331 220 -399 67 -90 196 -242 259 -302 130 -126 346
-277 513 -357 129 -62 355 -144 475 -172 394 -93 971 -89 1310 8 222 64 474
176 627 279 111 74 273 209 339 281 82 89 223 281 278 377 28 49 64 122 81
164 17 42 40 97 52 122 15 34 18 51 10 65 -10 19 -87 51 -272 114 -63 21 -173
60 -245 85 -71 26 -170 60 -220 77 -49 17 -134 46 -187 65 -112 39 -129 36
-155 -25 -62 -150 -213 -340 -348 -440 -161 -118 -372 -182 -604 -182 -310 0
-577 119 -777 344 -65 74 -91 111 -133 190 -134 248 -203 588 -187 926 7 159
17 222 58 390 34 141 86 276 150 387 113 200 329 376 554 453 84 29 223 50
334 50 297 -1 553 -106 740 -307 70 -74 107 -129 171 -252 24 -46 49 -86 57
-88 22 -9 104 19 642 212 36 13 90 33 120 45 30 12 102 38 159 58 136 48 141
56 106 154 -72 205 -227 460 -377 622 -200 217 -492 406 -769 497 -233 76
-407 112 -629 129 -152 11 -248 11 -430 -1z M32498 23388 c-17 -17 -18 -130
-18 -2311 0 -1770 3 -2296 12 -2305 9 -9 157 -12 603 -12 495 0 594 2 611 14
19 14 19 51 22 2288 1 1250 0 2283 -3 2295 -3 12 -12 29 -22 38 -15 15 -67 16
-602 14 -545 -3 -587 -5 -603 -21z M23601 15513 c-22 -19 -28 -44 -76 -318
-37 -209 -89 -492 -136 -740 -21 -115 -48 -255 -58 -310 -104 -548 -105 -553
-91 -570 10 -12 38 -15 132 -15 66 0 128 5 138 10 20 11 40 66 40 112 0 52 42
48 78 -7 31 -48 119 -104 199 -126 163 -45 351 -4 497 110 129 101 232 268
283 458 23 87 26 118 27 268 0 159 -1 175 -26 243 -49 136 -130 231 -245 288
-55 28 -64 29 -193 29 l-135 0 -85 -42 c-47 -23 -102 -57 -123 -74 -54 -47
-64 -32 -43 73 8 46 23 126 31 178 21 128 54 304 67 364 10 46 9 51 -12 68
-19 15 -41 18 -135 18 -93 0 -117 -3 -134 -17z m583 -877 c54 -32 81 -67 106
-142 49 -141 3 -383 -101 -536 -31 -45 -87 -91 -154 -126 -40 -20 -65 -25
-125 -26 -62 0 -84 5 -126 27 -64 32 -96 70 -123 142 -27 71 -27 156 -1 296
36 201 127 332 263 381 76 27 200 20 261 -16z M30158 15520 c-9 -6 -58 -67
-109 -138 -51 -70 -105 -142 -121 -160 -26 -30 -38 -81 -20 -83 50 -6 203 -4
222 3 35 13 361 348 358 367 -3 14 -27 16 -158 18 -89 2 -162 -2 -172 -7z
M12437 15423 c-162 -3 -168 -4 -177 -26 -5 -12 -25 -107 -45 -212 -20 -104
-42 -224 -50 -265 -16 -85 -42 -236 -56 -325 -12 -77 -45 -254 -70 -370 -33
-157 -109 -594 -109 -628 0 -14 7 -28 16 -31 9 -3 72 -6 140 -6 145 0 158 7
169 87 3 26 15 93 26 148 49 257 69 367 69 384 0 10 8 29 18 41 17 21 24 21
262 24 212 2 255 6 322 24 238 65 394 208 465 427 22 70 26 98 26 215 0 162
-14 221 -76 312 -54 78 -142 139 -252 174 -74 24 -96 26 -295 28 -118 2 -291
1 -383 -1z m472 -293 c88 -12 132 -37 176 -100 29 -42 30 -47 30 -154 0 -102
-2 -115 -27 -163 -35 -65 -101 -121 -181 -152 -56 -23 -79 -25 -255 -29 -142
-3 -197 -1 -207 8 -19 16 -19 55 0 128 15 59 39 201 57 332 13 94 22 118 50
130 31 12 264 12 357 0z M15183 14948 c-86 -8 -197 -46 -282 -96 -71 -42 -175
-146 -229 -230 -59 -92 -117 -242 -133 -343 -7 -43 -9 -125 -6 -194 6 -138 27
-210 86 -302 82 -127 182 -197 332 -233 161 -38 322 -18 484 60 263 128 434
456 411 786 -12 178 -60 296 -159 397 -124 125 -290 176 -504 155z m182 -293
c44 -18 93 -63 115 -104 27 -54 50 -151 50 -214 0 -87 -26 -202 -64 -281 -48
-100 -112 -168 -193 -207 -165 -79 -318 -30 -389 123 -26 57 -29 73 -29 173 0
95 4 122 29 195 64 191 167 301 307 330 51 10 131 3 174 -15z M16670 14949
c-129 -17 -243 -67 -353 -157 -115 -94 -189 -203 -245 -362 -37 -107 -52 -201
-52 -333 0 -120 25 -234 67 -306 42 -72 140 -163 213 -199 73 -35 192 -62 272
-62 81 0 228 34 305 71 88 42 237 183 231 220 -4 30 -161 152 -195 152 -15 0
-44 -20 -78 -52 -62 -59 -148 -102 -215 -109 -63 -6 -155 30 -201 79 -55 57
-73 122 -73 259 0 127 14 189 67 298 44 91 105 155 184 194 56 27 77 32 137
32 39 0 87 -5 106 -12 34 -12 93 -61 137 -115 13 -15 29 -27 36 -27 27 0 208
102 223 126 15 21 14 27 -11 73 -65 118 -207 210 -358 230 -87 12 -103 12
-197 0z M20455 14946 c-127 -21 -209 -60 -288 -135 -86 -82 -129 -182 -131
-301 -2 -135 66 -238 201 -307 43 -22 125 -57 182 -78 74 -28 115 -49 142 -75
35 -33 39 -42 39 -86 0 -60 -24 -102 -76 -135 -35 -21 -51 -24 -144 -24 -98 0
-109 2 -165 31 -33 18 -77 46 -99 63 -21 17 -48 31 -60 31 -31 -1 -186 -138
-186 -166 0 -30 96 -113 182 -159 240 -127 598 -84 758 92 75 82 92 128 98
258 3 95 1 118 -18 168 -41 109 -105 159 -313 243 -189 77 -231 112 -231 188
0 43 24 79 76 114 38 25 50 27 132 26 78 0 99 -4 146 -27 30 -15 70 -38 89
-52 19 -14 40 -25 47 -25 14 0 170 136 177 154 10 25 -16 56 -84 101 -138 92
-307 128 -474 101z M21755 14946 c-44 -8 -100 -21 -125 -30 -150 -55 -313
-202 -391 -352 -55 -106 -74 -161 -94 -274 -29 -166 -12 -333 47 -458 107
-227 408 -354 673 -283 291 77 457 249 551 572 25 83 28 110 28 234 0 125 -3
149 -27 221 -76 230 -252 364 -493 378 -54 3 -121 0 -169 -8z m220 -295 c55
-25 109 -87 131 -152 28 -80 26 -249 -4 -347 -45 -144 -128 -254 -229 -304
-123 -60 -253 -45 -337 41 -97 99 -102 367 -10 558 43 90 106 158 183 196 47
23 67 27 140 27 62 0 97 -6 126 -19z M25464 14950 c-164 -18 -269 -68 -396
-189 -140 -133 -206 -256 -243 -456 -23 -120 -16 -301 15 -400 55 -178 194
-307 385 -356 199 -52 450 10 615 152 112 96 191 221 245 389 23 72 28 107 33
230 5 168 -6 230 -64 348 -65 133 -199 241 -334 270 -71 16 -179 21 -256 12z
m167 -290 c52 -14 113 -71 140 -132 22 -48 24 -66 23 -183 0 -115 -4 -139 -28
-210 -52 -151 -117 -234 -229 -290 -58 -29 -80 -35 -134 -35 -72 0 -127 22
-181 74 -46 42 -69 90 -83 171 -31 182 38 414 159 527 57 54 74 63 144 83 53
15 119 13 189 -5z M27075 14949 c-74 -15 -164 -62 -217 -114 -26 -25 -55 -45
-64 -45 -14 0 -16 7 -10 51 10 76 5 79 -139 79 -104 0 -124 -3 -137 -17 -15
-17 -41 -139 -88 -413 -11 -69 -25 -145 -31 -170 -16 -77 -99 -560 -111 -653
-10 -75 -10 -90 2 -97 20 -13 246 -13 269 0 10 5 21 16 25 25 3 9 24 120 46
248 22 128 51 296 65 374 35 201 74 294 154 366 69 62 115 81 207 81 73 1 84
-2 117 -27 25 -19 40 -41 48 -70 15 -54 6 -191 -20 -322 -11 -55 -29 -154 -41
-220 -25 -144 -56 -311 -71 -383 -16 -80 -12 -82 146 -82 117 0 134 2 149 19
12 13 24 62 37 143 37 228 47 293 69 403 57 297 84 370 168 454 68 67 111 86
204 86 62 0 82 -4 105 -21 42 -32 70 -79 78 -132 6 -46 -11 -193 -39 -342 -19
-95 -49 -262 -76 -410 -11 -63 -23 -127 -26 -141 -10 -50 13 -59 150 -59 106
0 125 3 139 18 19 21 23 38 78 342 22 124 52 284 66 355 21 104 27 160 27 280
l1 150 -33 67 c-52 105 -130 161 -251 178 -167 24 -315 -27 -447 -152 -46 -44
-79 -68 -88 -65 -8 3 -24 23 -35 44 -29 58 -89 112 -159 145 -48 23 -79 31
-140 33 -42 2 -99 -1 -127 -6z M32123 14945 c-76 -17 -150 -56 -214 -112 -67
-61 -73 -59 -69 20 3 63 -7 67 -145 67 -92 0 -125 -3 -134 -14 -6 -8 -29 -103
-51 -212 -22 -110 -47 -233 -55 -274 -19 -97 -58 -312 -85 -470 -11 -69 -29
-174 -40 -235 -11 -60 -22 -132 -26 -160 -3 -27 -10 -66 -15 -86 -15 -59 -69
-392 -69 -425 0 -16 5 -35 12 -42 8 -8 53 -12 135 -12 110 0 125 2 143 20 11
11 20 24 20 29 0 4 7 48 16 97 46 266 74 436 80 492 4 40 12 66 21 69 7 3 35
-15 62 -40 93 -87 230 -134 361 -123 92 7 149 24 243 73 101 52 218 171 275
280 83 159 123 320 124 501 1 184 -43 317 -140 423 -65 71 -142 116 -228 134
-84 18 -139 18 -221 0z m71 -279 c102 -31 154 -92 181 -210 43 -188 -52 -476
-188 -573 -57 -41 -148 -73 -206 -73 -60 0 -161 48 -195 93 -57 76 -70 117
-69 212 0 55 9 125 22 180 23 95 83 219 129 268 44 47 107 86 164 101 69 19
104 19 162 2z M35988 14949 c-137 -18 -270 -85 -375 -188 -135 -132 -215 -293
-248 -496 -20 -121 -18 -212 5 -318 24 -109 67 -191 139 -266 161 -167 449
-198 706 -76 62 29 98 56 158 115 102 102 102 110 -3 188 -43 33 -88 63 -99
67 -14 4 -36 -9 -83 -51 -103 -93 -207 -128 -307 -104 -152 36 -220 178 -192
400 25 201 110 353 236 418 37 19 70 26 128 30 108 6 150 -11 227 -96 l60 -67
103 54 c121 64 137 77 137 108 0 49 -91 154 -185 212 -101 64 -259 91 -407 70z
M37301 14948 c-76 -10 -198 -56 -265 -98 -149 -95 -278 -276 -336 -470 -31
-104 -40 -346 -16 -440 64 -255 274 -410 554 -410 107 0 209 24 317 76 88 42
214 135 234 173 8 14 6 25 -9 44 -30 38 -145 127 -165 127 -9 0 -45 -21 -81
-47 -89 -67 -160 -92 -259 -92 -65 -1 -90 4 -135 25 -30 14 -63 33 -74 42 -33
30 -65 108 -71 173 -11 108 -48 99 460 107 l440 7 15 30 c11 23 14 69 15 185
0 134 -3 164 -23 224 -12 38 -34 91 -49 117 -59 109 -206 207 -343 229 -75 11
-120 11 -209 -2z m180 -276 c90 -33 143 -105 156 -210 10 -84 16 -83 -310 -80
l-282 3 -3 28 c-5 39 66 156 122 202 85 69 217 93 317 57z M38602 14950 c-88
-12 -151 -35 -219 -79 -79 -51 -139 -120 -176 -199 -24 -54 -31 -84 -35 -154
-4 -76 -1 -92 20 -140 52 -112 128 -169 335 -248 127 -49 171 -78 200 -134 20
-38 10 -82 -27 -127 -45 -55 -83 -69 -192 -69 -78 0 -102 4 -146 25 -29 13
-78 45 -108 70 -31 25 -60 45 -66 45 -14 0 -185 -137 -191 -153 -2 -6 -1 -20
2 -30 10 -27 140 -136 196 -163 168 -82 404 -85 580 -7 152 67 240 171 266
315 24 135 -19 271 -110 347 -54 45 -111 75 -241 125 -132 52 -179 81 -196
122 -30 71 -9 128 61 170 65 38 143 43 236 15 41 -12 93 -36 116 -52 23 -16
52 -29 65 -29 16 0 53 24 101 66 93 80 100 104 39 153 -53 42 -166 97 -232
114 -75 20 -202 27 -278 17z M39780 14949 c-198 -24 -329 -111 -403 -267 -29
-61 -32 -75 -32 -167 0 -95 2 -103 34 -163 57 -106 130 -158 299 -216 57 -19
121 -45 143 -58 104 -58 105 -179 2 -247 -54 -36 -126 -47 -205 -32 -70 13
-118 36 -183 90 -28 23 -60 41 -74 41 -27 0 -163 -99 -188 -137 -15 -22 -15
-26 4 -51 31 -42 130 -118 191 -147 78 -37 205 -65 292 -65 91 1 226 29 301
63 85 39 162 115 206 205 37 73 38 80 38 181 0 96 -3 111 -28 163 -51 103
-141 166 -341 239 -69 25 -100 42 -138 79 -41 40 -48 52 -48 86 0 21 9 54 20
72 27 44 108 82 176 82 70 0 169 -32 228 -75 59 -42 70 -40 141 20 88 75 105
94 105 116 0 47 -143 142 -262 173 -76 20 -190 26 -278 15z M41062 14949
c-202 -26 -368 -126 -488 -295 -176 -246 -216 -614 -92 -847 37 -70 147 -176
221 -213 272 -139 651 -45 843 209 117 155 175 338 175 552 0 197 -42 321
-147 435 -45 48 -77 71 -148 105 -123 60 -215 74 -364 54z m193 -298 c57 -25
111 -89 132 -158 23 -77 23 -234 -1 -323 -25 -92 -82 -195 -140 -253 -66 -66
-141 -100 -232 -105 -61 -3 -78 0 -121 22 -63 32 -117 93 -140 160 -24 70 -23
239 1 321 46 156 136 285 229 328 82 39 193 42 272 8z M14320 14943 c-64 -12
-154 -65 -220 -129 -87 -84 -107 -76 -78 30 19 70 9 76 -133 76 -126 0 -144
-6 -153 -53 -22 -113 -40 -210 -56 -302 -11 -60 -33 -179 -50 -264 -17 -84
-42 -219 -55 -300 -27 -160 -62 -353 -70 -388 -10 -44 16 -53 149 -53 83 0
127 4 138 13 19 14 34 62 43 132 3 28 14 95 25 150 21 108 45 237 66 354 26
140 58 216 130 302 76 91 187 136 310 126 91 -7 107 8 123 124 7 46 17 99 22
117 9 28 8 37 -7 53 -14 16 -29 19 -88 18 -39 -1 -82 -4 -96 -6z M17940 14943
c-44 -7 -123 -35 -175 -61 -173 -86 -329 -289 -395 -512 -31 -105 -39 -337
-16 -430 26 -104 63 -169 140 -246 80 -80 156 -121 273 -148 137 -31 322 -11
453 47 61 27 157 96 209 150 45 47 38 69 -40 132 -104 84 -103 84 -180 28 -98
-70 -227 -108 -319 -94 -63 10 -144 54 -175 95 -33 43 -55 114 -55 177 0 85
-26 81 461 78 327 -2 431 1 443 10 23 19 36 102 36 234 0 134 -16 210 -65 306
-53 105 -181 202 -305 230 -43 10 -238 13 -290 4z m220 -274 c56 -25 107 -73
126 -118 8 -19 17 -57 20 -85 5 -43 3 -54 -13 -69 -18 -16 -44 -17 -299 -15
l-279 3 -3 30 c-2 22 8 48 36 90 49 76 117 136 184 163 71 28 168 28 228 1z
M19221 14939 c-25 -5 -78 -24 -118 -43 -91 -43 -161 -113 -203 -201 -96 -201
-45 -379 140 -489 30 -18 108 -52 173 -76 64 -23 135 -55 157 -71 80 -58 72
-159 -19 -222 -44 -31 -50 -32 -146 -32 -83 0 -109 4 -155 24 -30 13 -78 41
-106 62 -29 23 -62 39 -77 39 -18 0 -49 -19 -94 -58 -38 -32 -74 -67 -82 -76
-21 -25 -5 -57 58 -109 197 -167 498 -204 736 -91 87 41 183 136 223 221 24
51 27 70 27 158 0 121 -18 167 -94 248 -55 58 -108 87 -283 157 -137 54 -188
95 -195 160 -8 87 63 148 184 158 75 6 181 -25 243 -69 22 -16 49 -29 60 -29
31 0 180 132 180 161 0 46 -180 153 -298 178 -61 13 -246 13 -311 0z M29830
14940 c-222 -38 -458 -258 -541 -506 -37 -110 -49 -185 -49 -320 0 -125 24
-236 68 -318 39 -73 123 -158 189 -194 126 -67 296 -87 454 -54 139 29 248 83
338 167 50 48 71 74 69 88 -4 27 -147 146 -176 146 -12 1 -46 -18 -75 -40 -29
-23 -81 -56 -117 -72 -57 -27 -77 -31 -155 -31 -78 -1 -95 2 -130 23 -93 56
-128 108 -146 221 -19 113 -56 105 461 105 312 0 442 3 450 11 19 19 30 83 36
214 5 97 3 140 -10 194 -43 183 -171 314 -351 361 -63 16 -234 19 -315 5z
m228 -265 c88 -26 150 -110 155 -208 4 -90 15 -87 -298 -87 -151 0 -280 3
-289 6 -34 13 -8 96 56 176 84 107 239 153 376 113z M33656 14939 c-66 -16
-159 -71 -218 -131 -32 -32 -62 -58 -67 -58 -17 0 -20 29 -5 82 7 29 14 54 14
55 0 1 -7 9 -16 17 -12 13 -40 16 -134 16 -126 0 -144 -6 -155 -53 -26 -112
-119 -642 -145 -827 -11 -74 -34 -206 -51 -293 -24 -125 -28 -161 -19 -172 10
-12 40 -15 135 -15 102 0 126 3 144 18 18 14 28 58 66 267 89 492 95 517 128
579 44 83 108 150 175 183 50 25 69 28 162 30 137 2 128 0 140 22 11 21 50
213 50 248 0 12 -9 27 -19 33 -24 12 -131 12 -185 -1z M34445 14936 c-136 -32
-231 -85 -334 -188 -161 -161 -233 -350 -235 -613 -1 -108 3 -144 22 -210 13
-44 35 -101 49 -128 34 -61 147 -169 216 -203 75 -39 180 -64 270 -64 72 0
248 31 272 49 5 4 26 14 45 21 54 21 119 67 188 134 166 160 252 370 252 618
0 273 -132 482 -360 566 -54 20 -88 25 -195 28 -87 2 -150 -1 -190 -10z m275
-294 c61 -30 111 -93 132 -165 17 -59 14 -210 -6 -292 -53 -220 -197 -365
-372 -373 -63 -4 -77 -1 -131 27 -65 32 -90 60 -126 138 -19 42 -22 65 -21
173 0 137 14 200 66 305 40 82 86 134 150 173 99 59 209 64 308 14z M48602
13931 c-66 -23 -107 -61 -127 -119 -35 -105 -5 -208 73 -251 124 -67 282 16
299 158 8 69 -3 116 -38 155 -56 64 -129 84 -207 57z" fill="#012F49" fill-rule="evenodd"/></g><g transform="translate(0.000000,6000.000000) scale(0.100000,-0.100000)"><path d="M30201 47212 c-103 -105 -849 -861 -1281 -1297 -392 -395 -2189
-2220 -2532 -2571 l-148 -151 0 -24 0 -24 143 -147 c78 -82 205 -212 282 -290
78 -79 190 -195 250 -258 131 -137 738 -763 811 -835 28 -27 113 -115 189
-195 77 -80 227 -235 334 -345 108 -111 342 -351 521 -535 179 -184 401 -414
495 -510 94 -96 240 -247 326 -335 85 -88 250 -257 365 -375 115 -118 230
-236 255 -262 25 -27 53 -48 61 -48 l15 0 268 278 c148 152 465 477 705 722
239 245 552 567 695 715 143 149 341 353 441 455 99 102 273 280 385 395 112
116 276 284 364 375 193 199 991 1024 1093 1131 l72 75 0 20 0 19 -187 190
c-104 105 -557 564 -1008 1020 -451 457 -964 976 -1140 1155 -375 380 -875
887 -1350 1368 l-339 342 -15 0 c-8 0 -39 -26 -70 -58z M25439 42378 c-96
-101 -222 -232 -279 -293 -57 -60 -195 -204 -305 -320 -110 -115 -308 -322
-440 -460 -131 -137 -282 -295 -334 -350 -53 -55 -137 -143 -186 -195 -50 -53
-176 -185 -280 -295 -105 -110 -278 -292 -385 -405 -107 -113 -242 -254 -300
-315 -59 -60 -183 -191 -276 -290 -92 -99 -259 -274 -370 -390 -110 -115 -275
-290 -365 -389 l-164 -178 -3 -23 -3 -23 122 -129 c68 -70 191 -198 274 -283
164 -170 243 -252 505 -530 96 -102 292 -307 435 -456 286 -298 742 -775 904
-948 58 -61 222 -232 366 -381 143 -148 283 -295 310 -325 27 -30 121 -129
210 -220 209 -215 616 -639 729 -760 102 -109 124 -130 138 -130 16 0 117 101
362 360 127 135 290 306 362 380 71 74 231 241 354 370 215 226 413 432 810
848 102 106 241 252 309 325 124 133 573 603 841 881 80 83 208 219 284 301
76 83 202 215 280 295 78 80 178 184 224 231 l82 87 0 21 0 22 -128 132 c-70
73 -149 157 -175 187 -27 30 -140 147 -251 260 -111 113 -240 246 -286 295
-47 50 -205 214 -351 365 -146 151 -445 461 -664 689 -220 228 -449 466 -510
530 -60 64 -227 237 -370 386 -144 148 -288 299 -320 335 -33 36 -161 169
-285 295 -125 127 -264 271 -310 320 -47 50 -143 150 -215 223 l-130 132 -21
0 -20 0 -175 -182z M34741 42407 c-69 -73 -199 -209 -290 -302 -221 -226 -378
-390 -601 -625 -102 -107 -255 -267 -340 -355 -85 -88 -268 -279 -405 -425
-137 -146 -317 -335 -400 -420 -222 -229 -608 -631 -710 -740 -49 -52 -173
-180 -275 -285 -102 -104 -217 -224 -255 -265 -38 -41 -164 -174 -281 -295
-206 -214 -304 -321 -304 -330 0 -9 106 -123 380 -410 152 -159 355 -374 451
-476 96 -103 282 -299 414 -436 132 -137 355 -371 496 -519 141 -148 337 -353
435 -456 99 -103 296 -310 439 -460 143 -150 327 -343 410 -428 82 -86 227
-236 320 -335 94 -99 244 -256 335 -350 91 -94 193 -201 227 -238 l63 -67 19
0 18 0 113 123 c62 67 143 154 179 192 141 148 411 435 776 825 209 223 450
478 535 568 85 89 204 215 264 280 60 64 236 250 391 412 155 162 454 477 666
699 211 223 472 497 579 609 324 341 480 512 480 528 l0 15 -272 282 c-149
155 -405 419 -567 587 -163 168 -469 485 -681 705 -212 220 -475 492 -585 605
-110 113 -303 314 -430 445 -220 231 -1000 1037 -1287 1333 l-139 142 -22 -1
-22 0 -124 -132z M20998 37688 c-73 -78 -225 -239 -338 -358 -113 -119 -304
-322 -425 -451 -121 -129 -281 -297 -355 -374 -74 -77 -189 -198 -255 -270
-66 -71 -199 -213 -295 -315 -96 -102 -278 -296 -405 -430 -126 -135 -354
-375 -505 -535 -151 -160 -376 -398 -500 -530 -124 -132 -268 -285 -321 -340
-52 -55 -157 -166 -232 -247 l-137 -147 0 -17 0 -17 117 -121 c65 -67 195
-200 288 -296 94 -96 279 -287 410 -425 132 -137 294 -306 360 -375 67 -69
175 -181 240 -250 66 -69 215 -224 331 -345 115 -121 286 -301 379 -400 94
-99 240 -252 325 -340 85 -88 189 -196 229 -240 124 -134 951 -993 1201 -1247
64 -65 122 -118 130 -118 7 0 41 28 74 63 100 103 596 626 676 712 41 44 167
177 281 295 113 118 246 259 295 312 85 93 297 317 523 553 58 61 155 162 215
225 60 63 151 158 201 210 50 52 133 140 185 195 91 97 168 178 355 375 50 52
164 174 255 270 91 96 288 303 439 460 150 157 312 327 359 378 l85 93 -9 24
c-5 14 -225 244 -489 513 -264 268 -520 530 -570 582 -131 139 -833 867 -1030
1070 -169 173 -640 664 -970 1011 -307 324 -728 762 -841 876 l-112 113 -15 0
-15 0 -134 -142z M29879 37358 c-201 -205 -414 -425 -474 -488 -60 -63 -191
-199 -290 -301 -99 -102 -218 -226 -265 -275 -46 -49 -145 -152 -220 -229 -74
-77 -211 -221 -305 -320 -93 -99 -287 -301 -430 -450 -245 -255 -595 -619
-785 -820 -47 -49 -103 -107 -126 -130 -23 -22 -110 -114 -195 -205 -85 -90
-218 -231 -296 -311 -79 -81 -143 -153 -143 -159 0 -7 51 -65 113 -129 61 -64
216 -226 342 -361 352 -375 409 -434 550 -580 72 -74 209 -218 305 -320 96
-101 265 -277 375 -390 110 -113 286 -298 390 -410 105 -113 213 -229 241
-257 l52 -53 17 0 c9 0 47 12 83 26 64 25 127 52 562 234 107 45 233 98 280
117 169 70 809 348 911 396 42 19 110 50 150 67 41 18 97 43 126 56 28 13 54
24 56 24 3 0 65 29 138 64 299 143 356 169 394 186 58 25 373 174 560 265 88
42 196 94 240 115 166 78 1351 673 1599 803 143 75 263 143 268 151 l8 15 -48
58 c-27 32 -103 114 -169 183 -65 69 -200 211 -299 316 -98 105 -255 272 -349
370 -93 99 -231 245 -305 324 -74 80 -196 208 -270 285 -74 77 -157 165 -185
195 -27 30 -158 168 -290 306 -132 137 -300 315 -374 395 -74 79 -236 250
-360 379 -124 130 -291 305 -371 390 -80 85 -217 230 -305 321 -88 91 -236
245 -328 342 l-169 177 -23 0 -23 0 -363 -372z M34895 25416 l-20 -14 -3
-3308 -2 -3307 11 -13 11 -14 629 0 628 0 15 16 16 15 0 1114 0 1114 11 6 c5
4 175 7 377 6 202 0 525 4 717 8 l350 9 145 26 c244 44 422 99 619 192 167 79
263 137 379 227 331 258 594 663 696 1074 71 282 89 424 90 698 l0 180 -12
130 c-26 262 -94 497 -217 750 -85 176 -138 256 -257 394 -256 293 -593 497
-1018 615 -69 19 -168 42 -220 51 -52 9 -120 21 -150 27 l-55 10 -1360 5
-1360 4 -20 -15z m2170 -1189 l400 -4 97 -26 c191 -51 344 -141 466 -273 l69
-74 51 -98 51 -97 28 -100 28 -100 0 -215 0 -215 -24 -95 -24 -94 -43 -94
c-56 -121 -116 -204 -206 -287 l-73 -66 -75 -43 c-133 -74 -278 -121 -428
-136 l-87 -9 -543 -2 -542 -1 -15 12 -15 12 0 997 0 997 9 10 10 9 233 -2
c128 -2 413 -4 633 -6z M41565 23500 c-200 -17 -392 -56 -575 -117 -255 -85
-440 -192 -609 -356 -153 -148 -255 -290 -346 -479 -61 -128 -125 -306 -125
-348 l0 -28 28 -11 c15 -6 104 -26 197 -45 94 -19 202 -41 240 -50 39 -8 163
-36 276 -61 114 -25 227 -48 252 -51 l45 -6 12 21 c6 12 22 54 34 94 42 131
115 235 224 316 l67 51 80 34 c44 19 116 42 160 51 l80 17 135 0 135 0 95 -21
95 -21 83 -41 83 -41 67 -63 67 -63 32 -54 c18 -29 43 -87 57 -128 l25 -75 10
-97 c6 -54 11 -146 11 -206 l0 -108 -12 -17 -13 -16 -465 -5 c-470 -5 -627
-13 -845 -42 -438 -57 -802 -210 -1043 -439 -78 -74 -189 -214 -239 -305 -48
-84 -103 -234 -129 -350 l-24 -105 -11 -146 -11 -145 11 -130 11 -129 29 -115
c59 -230 178 -446 329 -593 211 -208 442 -322 807 -398 l110 -23 205 0 205 1
90 17 c274 51 444 117 635 246 l85 58 106 109 107 109 31 56 c18 31 38 62 46
68 l15 12 15 -6 15 -5 0 -261 0 -260 20 -20 20 -20 503 0 503 0 17 13 18 12
-4 1630 -3 1630 -17 107 c-19 126 -54 262 -96 378 -36 96 -129 277 -174 335
-151 193 -311 326 -522 433 -251 126 -490 183 -850 203 -184 9 -283 9 -410 -1z
m913 -2707 l22 -13 0 -188 0 -187 -14 -85 c-8 -47 -28 -124 -44 -172 l-30 -87
-48 -73 c-26 -40 -79 -105 -118 -144 -119 -118 -240 -190 -406 -240 l-95 -29
-195 0 -195 1 -88 32 -88 31 -62 45 c-34 24 -74 57 -89 72 -42 46 -97 143
-119 214 l-20 65 0 110 0 110 19 65 c10 36 31 89 46 119 l27 53 46 45 c25 24
66 58 91 75 63 44 189 96 295 123 166 42 542 72 902 72 l140 0 23 -14z M51050
23503 c-97 -8 -329 -45 -400 -64 -214 -58 -467 -168 -632 -274 -146 -95 -328
-257 -431 -385 -179 -222 -342 -532 -433 -823 -77 -247 -112 -490 -121 -847
l-6 -225 17 -165 c21 -198 56 -376 103 -525 109 -340 235 -590 382 -761 20
-23 70 -80 111 -128 252 -292 676 -525 1124 -618 l151 -32 340 0 340 -1 90 18
c463 91 746 221 1057 484 90 76 224 216 278 291 144 200 260 405 313 555 67
189 133 451 164 652 l18 120 0 290 -1 290 -27 171 c-75 468 -206 811 -425
1116 -106 147 -176 223 -324 354 -184 162 -350 263 -588 357 -205 82 -387 124
-625 147 -102 9 -370 11 -475 3z m398 -1079 l106 -15 82 -33 c100 -40 175 -84
257 -152 l62 -50 62 -83 c86 -113 149 -233 199 -375 l42 -121 23 -130 24 -130
0 -265 -1 -265 -22 -125 c-47 -269 -146 -494 -293 -660 -123 -140 -288 -245
-459 -292 l-85 -23 -185 0 -185 1 -85 23 c-47 12 -121 40 -165 62 l-80 39 -89
72 -89 72 -63 80 -63 80 -60 120 -61 121 -29 107 c-17 59 -38 149 -48 200
l-18 93 0 290 0 290 28 125 c41 184 73 283 127 392 65 129 119 207 204 293
135 136 298 224 471 254 98 17 106 18 199 20 l88 1 106 -16z M46015 23494
c-120 -12 -280 -38 -355 -59 -406 -108 -775 -377 -1034 -752 -65 -94 -202
-355 -241 -458 -73 -192 -135 -434 -166 -650 l-22 -150 -1 -320 -1 -320 23
-145 c44 -269 91 -462 152 -616 45 -113 151 -313 222 -419 74 -109 197 -255
281 -330 86 -78 232 -172 394 -255 162 -81 243 -110 413 -144 247 -50 428 -57
655 -27 l140 19 115 37 c162 53 306 127 435 224 76 57 227 211 263 268 l27 43
16 0 17 0 5 -22 c3 -13 4 -167 1 -343 l-4 -320 -28 -141 -29 -141 -35 -81
c-43 -99 -133 -235 -204 -307 -132 -134 -343 -236 -550 -264 -41 -6 -130 -11
-197 -11 l-122 0 -95 15 c-245 38 -452 149 -574 308 -25 32 -72 112 -106 178
-34 66 -67 122 -75 125 -13 5 -66 -12 -230 -76 -44 -17 -120 -46 -170 -65 -49
-18 -108 -41 -130 -50 -22 -10 -67 -28 -100 -40 -130 -49 -340 -137 -353 -148
l-14 -11 5 -36 c6 -47 119 -281 189 -395 178 -285 418 -480 781 -634 232 -98
486 -146 887 -167 l125 -6 175 12 c393 25 684 97 961 235 328 165 565 385 751
697 134 226 236 546 275 864 l17 139 3 2304 4 2304 -17 18 -17 19 -533 0 -534
0 -15 -24 -16 -24 2 -217 2 -216 -11 -11 -10 -10 -11 6 c-6 4 -42 48 -80 99
-189 251 -472 414 -821 473 l-85 15 -155 4 c-85 1 -173 1 -195 -1z m572 -1073
l92 -19 93 -45 93 -44 82 -61 83 -62 63 -80 c154 -194 227 -389 258 -683 l12
-111 -6 -226 -6 -225 -26 -125 -26 -125 -41 -104 -42 -104 -67 -101 -66 -101
-80 -76 c-91 -87 -143 -125 -242 -174 l-71 -36 -97 -25 -98 -25 -115 -6 -115
-5 -115 26 -115 26 -100 50 -100 49 -65 54 c-168 139 -280 341 -344 622 l-25
110 -10 155 -10 155 9 160 10 160 26 127 c37 188 103 361 186 490 20 31 67 89
105 129 l68 72 73 48 c100 66 169 97 276 124 l91 24 135 0 135 1 92 -19z
M43314 14945 c-83 -18 -157 -57 -220 -117 l-53 -50 -16 6 -15 5 0 19 c0 11 5
34 11 51 l12 33 -14 13 -14 14 -128 3 -128 3 -12 -16 c-7 -9 -20 -56 -29 -105
-25 -125 -88 -473 -104 -569 -7 -44 -22 -129 -34 -190 -24 -123 -63 -339 -84
-460 -8 -44 -18 -98 -24 -120 -6 -22 -20 -98 -32 -170 -11 -71 -25 -158 -31
-192 -6 -33 -8 -70 -5 -81 l7 -20 22 -6 c35 -9 223 -7 250 3 14 6 28 18 31 28
13 42 88 447 101 542 l14 104 14 15 15 14 33 -37 c50 -55 106 -90 183 -114
l68 -21 67 0 c131 0 272 49 375 129 80 62 167 168 216 262 l41 78 31 118 31
118 1 140 1 140 -22 71 c-11 39 -33 96 -48 128 l-27 58 -52 51 c-63 63 -132
102 -217 122 -77 18 -133 18 -215 0z m113 -300 l51 -26 28 -36 c15 -19 35 -62
45 -95 l19 -60 0 -75 0 -75 -21 -81 -21 -82 -36 -70 -36 -70 -56 -55 -55 -55
-57 -28 -57 -27 -66 0 -66 0 -47 24 c-26 13 -63 42 -83 63 l-37 38 -17 53 -17
54 1 67 c0 38 10 111 21 164 l19 96 30 65 29 65 48 51 c51 54 96 86 153 106
l36 13 71 1 70 0 51 -25z M44661 14949 c-40 -6 -110 -23 -154 -40 -92 -33
-216 -101 -248 -135 l-21 -23 6 -25 c7 -30 97 -141 127 -156 l20 -11 67 40
c37 22 90 50 117 63 l50 23 90 0 90 0 42 -22 c23 -13 54 -38 68 -57 l26 -34 8
-51 c9 -59 5 -96 -15 -111 l-13 -12 -198 -2 -198 -2 -80 -18 -80 -18 -70 -36
-70 -35 -63 -64 -64 -65 -24 -52 c-13 -28 -29 -76 -35 -106 l-11 -54 4 -81 4
-80 34 -64 34 -63 52 -40 c29 -22 77 -49 106 -60 l53 -20 71 -5 71 -6 79 18
c95 21 161 53 219 106 23 21 50 39 60 39 l18 0 -7 -49 -6 -49 15 -16 16 -16
110 0 110 0 19 10 19 10 6 38 c8 50 43 230 60 317 8 39 19 108 25 155 6 47 15
103 20 125 5 22 16 102 25 179 l16 138 -11 77 -12 76 -25 58 -26 57 -38 35
c-49 44 -139 89 -206 103 -79 17 -200 22 -282 11z m219 -787 l23 -18 -18 -59
c-34 -120 -83 -192 -164 -244 l-48 -31 -77 -17 -76 -17 -55 18 -54 17 -30 36
-29 35 -6 33 c-4 18 -4 51 0 74 l6 40 35 41 c42 48 97 79 173 96 l55 12 121 1
122 1 22 -18z M46006 14944 c-33 -8 -93 -30 -133 -50 l-74 -35 -69 -66 -69
-65 -45 -68 c-54 -81 -88 -159 -118 -271 l-23 -84 1 -170 0 -170 26 -72 c58
-159 169 -262 318 -297 81 -20 157 -20 235 -1 82 19 145 48 196 91 l42 35 14
-14 14 -13 -22 -89 c-24 -103 -65 -189 -115 -245 l-36 -40 -63 -31 -63 -31
-85 0 -85 0 -59 17 c-63 18 -135 60 -173 100 l-23 25 -26 0 -26 0 -83 -83 -82
-82 0 -23 0 -24 38 -37 c52 -52 116 -93 192 -123 75 -30 97 -35 205 -48 l79
-10 121 16 120 15 66 28 c89 37 166 90 228 156 l52 55 39 83 c44 94 81 224
109 382 11 61 29 164 41 230 11 66 28 150 36 186 19 84 51 267 69 389 7 52 23
148 34 213 24 137 26 168 9 185 l-12 12 -118 0 -118 0 -20 -20 -20 -20 0 -29
c0 -74 -28 -79 -89 -16 -52 54 -115 90 -191 110 l-58 15 -63 -1 c-35 0 -91 -7
-123 -15z m301 -297 c18 -9 48 -33 67 -53 l35 -36 15 -46 c21 -60 20 -126 -3
-254 l-19 -105 -27 -56 -26 -57 -50 -55 -51 -55 -65 -32 -66 -32 -71 -1 -71 0
-48 24 -48 23 -34 52 -34 51 -12 72 -12 73 11 94 11 94 32 77 c17 42 46 96 63
118 35 46 111 102 160 117 l31 9 90 -2 90 -3 32 -17z M47640 14954 c-14 -2
-52 -9 -85 -15 l-60 -11 -80 -37 -80 -38 -61 -50 c-111 -93 -209 -236 -258
-379 l-24 -69 -12 -122 -13 -122 13 -93 12 -93 23 -57 c28 -68 69 -130 129
-191 l44 -46 69 -35 c39 -19 97 -42 130 -50 l61 -16 85 0 85 0 83 16 84 16 80
38 80 39 63 52 c72 60 148 157 191 244 16 34 41 104 55 156 l25 94 7 105 7
105 -12 75 c-23 137 -68 237 -144 317 -60 63 -138 113 -223 142 l-62 20 -93 5
c-52 3 -105 3 -119 0z m191 -312 l54 -28 27 -39 c14 -22 33 -60 40 -85 l13
-45 -1 -115 0 -115 -13 -45 c-7 -25 -31 -83 -53 -129 l-40 -83 -44 -44 -44
-43 -62 -30 -61 -31 -74 0 -74 0 -47 24 c-60 31 -105 78 -134 141 l-23 50 1
125 1 125 27 80 c33 94 67 157 110 204 39 42 99 81 151 97 l40 13 76 0 77 1
53 -28z" fill="#BF9138" fill-rule="evenodd"/></g></g></svg>